<svg data-v-0dd9719b="" version="1.0" xmlns="http://www.w3.org/2000/svg" xmlns:xlink="http://www.w3.org/1999/xlink" width="100%" height="100%" viewBox="0 0 340.000000 250.000000" preserveAspectRatio="xMidYMid meet" color-interpolation-filters="sRGB" style="margin: auto;"> <rect data-v-0dd9719b="" x="0" y="0" width="100%" height="100%" fill="#fff" fill-opacity="1" class="background"></rect> <rect data-v-0dd9719b="" x="0" y="0" width="100%" height="100%" fill="url(#watermark)" fill-opacity="1" class="watermarklayer"></rect> <g data-v-0dd9719b="" fill="#333" class="icon-text-wrapper icon-svg-group iconsvg" transform="translate(47.80362701425555,96.03660011291504)"><g class="iconsvg-imagesvg" transform="translate(0,0)"><g><rect fill="#333" fill-opacity="0" stroke-width="2" x="0" y="0" width="60" height="57.92679983394317" class="image-rect"></rect> <svg x="0" y="0" width="60" height="57.92679983394317" filtersec="colorsb9035318595" class="image-svg-svg primary" style="overflow: visible;"><svg xmlns="http://www.w3.org/2000/svg" viewBox="0.010001301765441895 0.11366884410381317 585.78857421875 565.5459594726562"><path d="M222.65 274.33a53.21 53.21 0 1 0 0-106.42c-45.25 0-44.48 41.61-119.83 53.21 75.35 11.61 74.58 53.21 119.83 53.21zM29.01 250.13c25.54 0 29.39-29 73.81-29-44.42 0-48.27-29-73.81-29a29 29 0 0 0 0 58zM91.25 307a24.52 24.52 0 1 0-24.52-24.52A24.57 24.57 0 0 0 91.25 307zM240.52 361a53.21 53.21 0 0 0-100.68-34.48c-14.66 42.8 24.94 55.57 11.51 130.61 35.39-67.57 74.5-53.37 89.17-96.13z" fill="#0071bc" fill-rule="evenodd"></path><path d="M154.87 536.3c8.27-24.16-17.92-37.2-3.52-79.22-14.4 42-43.09 36.27-51.36 60.42a29.005 29.005 0 1 0 54.88 18.8zM182.41 480a24.52 24.52 0 1 1 15.25 31.14A24.51 24.51 0 0 1 182.41 480zM326.75 372.92a53.222 53.222 0 1 0-67.15 82.59c35.11 28.53 60.76-4.24 126.56 34.27-51.12-56.52-24.29-88.33-59.41-116.86zM461.77 513.81c-19.82-16.1-41.1 4-75.57-24 34.47 28 19.17 53 39 69.05a29 29 0 1 0 36.58-45zM418.38 468.52a24.52 24.52 0 1 1 34.49-3.52 24.52 24.52 0 0 1-34.49 3.52zM366.99 291.23A53.21 53.21 0 0 0 427.15 379c37.33-25.58 13.17-59.47 68.76-111.64-68.7 33.04-91.6-1.71-128.92 23.87zM540.4 201.73c-21.07 14.44-7.85 40.54-44.49 65.65 36.64-25.11 56.22-3.36 77.28-17.8a29.003 29.003 0 1 0-32.79-47.85zM484.66 230.48a24.51 24.51 0 1 1 6.36-34.08 24.51 24.51 0 0 1-6.36 34.08zM302.87 229.82a53.21 53.21 0 0 0 102.39-29c-12.34-43.55-52.16-31.48-83.87-100.82 9.38 75.68-30.86 86.29-18.52 129.82zM273.35 36.93c7 24.56 35.92 20.36 48 63.09-12.12-42.73 14.74-54.35 7.77-78.92a29.006 29.006 0 0 0-55.81 15.83zM282.83 98.92A24.52 24.52 0 1 1 252.6 82a24.53 24.53 0 0 1 30.23 16.92z" fill="#0071bc" fill-rule="evenodd"></path></svg></svg> <!----></g></g> <g transform="translate(67,0.2471485137939453)"><g data-gra="path-name" fill-rule="" class="tp-name iconsvg-namesvg" transform="translate(0,0)"><g transform="scale(1)"><g><path d="M26.28-30.73L42.93-30.73 42.93-29.43Q42.93-29.43 11.21-29.43L11.21-29.43 11.21-19.21Q11.21-16.96 11.12-15.25 11.03-13.54 10.71-11.21L10.71-11.21Q10.44-8.91 9.76-6.97L9.76-6.97Q9.09-5.08 8.05-3.06L8.05-3.06Q7.06-1.03 5.4 0.77 3.73 2.56 1.53 4.05L1.53 4.05 1.13 3.69Q3.87-0.77 4.68-6.25L4.68-6.25Q5.54-11.79 5.54-19.17L5.54-19.17 5.54-32.98 12.11-30.73 23.94-30.73Q23.58-30.87 23.09-31.18L23.09-31.18Q22.36-34.7 19.3-38.02L19.3-38.02 19.66-38.3Q25.96-37.75 27.49-34.74L27.49-34.74Q28.44-32.89 27.22-31.45L27.22-31.45Q26.82-31 26.28-30.73L26.28-30.73ZM54.23-19.53L54.23-37.57 59.27-36.9Q59.27-36.9 59.27-19.48L59.27-19.48Q59.22-15.57 58.63-12.29L58.63-12.29Q58.05-9.04 56.66-5.89L56.66-5.89Q55.3-2.75 52.74-0.18L52.74-0.18Q50.22 2.38 46.58 4.18L46.58 4.18 46.22 3.73Q50.76-0.45 52.47-6.17L52.47-6.17Q54.23-11.88 54.23-19.53L54.23-19.53ZM80.55 4.09L80.55-37.57 85.77-36.85 85.77 2.29Q85.77 2.79 84.33 3.42L84.33 3.42Q82.94 4.09 81.54 4.09L81.54 4.09 80.55 4.09ZM67.14 3.28L67.14-36.81 72.22-36.13 72.22 1.57Q72.22 2.02 70.83 2.65L70.83 2.65Q69.48 3.28 68.13 3.28L68.13 3.28 67.14 3.28ZM59.76-25.06L60.3-25.24Q65.43-21.96 66.06-17.91L66.06-17.91Q66.42-15.39 65.03-14.26L65.03-14.26Q63.59-13.09 62.01-14.63L62.01-14.63Q61.92-14.71 61.83-14.8L61.83-14.8Q62.1-19.17 59.76-25.06L59.76-25.06ZM72.77-25.11L73.31-25.33Q78.62-22.27 79.42-18.31L79.42-18.31Q79.92-15.75 78.48-14.49L78.48-14.49Q77.13-13.28 75.56-14.63L75.56-14.63Q75.33-14.8 75.15-14.98L75.15-14.98Q75.38-19.57 72.77-25.11L72.77-25.11ZM46.84-25.88L47.38-26.05Q52.78-22.45 53.5-17.95L53.5-17.95Q54-15.16 52.52-13.77L52.52-13.77Q51.08-12.51 49.41-13.99L49.41-13.99Q49.23-14.13 49.05-14.31L49.05-14.31Q49.37-19.53 46.84-25.88L46.84-25.88ZM126.22-30.29L126.22-30.29 125.55-30.69Q126.5-32.98 127.66-37.03L127.66-37.03 131.31-34.83Q128.47-31.63 126.22-30.29ZM111.6-27.86L111.24-29.16 119.75-29.16 119.75-37.98 124.25-37.39 124.25-29.16 133.34-29.16 133.34-27.86 124.25-27.86 124.25-18.86Q124.25-18.54 122.98-18.09L122.98-18.09Q121.77-17.64 120.56-17.64L120.56-17.64 119.75-17.64 119.75-24.66Q119.56-24.7 119.11-24.79L119.11-24.79Q115.06-21.02 111.38-19.08L111.38-19.08 110.92-19.44Q113.36-22.77 114.88-27.36L114.88-27.36 119.75-25.52 119.75-27.86 111.6-27.86ZM125.01-25.79L125.01-25.79 125.32-26.28Q130.95-26.23 132.8-23.36L132.8-23.36Q133.88-21.69 133.06-20.29L133.06-20.29Q132.25-18.99 130.59-19.71L130.59-19.71Q130.5-19.8 130.37-19.84L130.37-19.84Q127.84-23.8 125.01-25.79ZM112.19-36.45L112.19-36.45 112.63-36.72Q117.41-35.64 118.17-33.16L118.17-33.16Q118.66-31.59 117.36-30.64L117.36-30.64Q115.97-29.56 114.34-30.78L114.34-30.78Q114.25-30.87 114.12-30.96L114.12-30.96Q114.03-33.88 112.19-36.45ZM98.1-37.75L98.1-37.75 98.46-38.02Q103.45-38.07 104.49-35.82L104.49-35.82Q105.16-34.42 103.95-33.39L103.95-33.39Q102.6-32.17 100.84-33.16L100.84-33.16Q100.71-33.21 100.62-33.3L100.62-33.3Q100.17-35.59 98.1-37.75ZM98.5-26.73L98.5-31.32 96.84-31.32 96.84-26.73 98.5-26.73ZM101.3-26.73L103.05-26.73 103.05-31.32 101.3-31.32 101.3-26.73ZM107.46-18.72L107.46-25.47 105.84-25.47 105.84-18.72 107.46-18.72ZM103.05-25.47L101.3-25.47 101.3-18.72 103.05-18.72 103.05-25.47ZM98.5-25.47L96.84-25.47 96.84-18.72 98.5-18.72 98.5-25.47ZM107.46-16.34L107.46-17.46 96.84-17.46Q96.84-14.22 96.7-12.06 96.57-9.9 96.12-6.88 95.67-3.87 94.5-1.35L94.5-1.35Q93.38 1.17 91.53 3.19L91.53 3.19 90.9 2.83Q91.89 0.18 92.39-3.51L92.39-3.51Q92.88-7.25 92.92-9.72L92.92-9.72Q93.02-12.24 93.02-16.88L93.02-16.88Q93.02-17.86 93.02-18.36L93.02-18.36 93.02-34.34 97.52-32.58 112.45-32.58 112.45-31.32 105.84-31.32 105.84-26.73 110.79-26.73 110.79-17.32Q110.75-17.05 109.75-16.7 108.77-16.34 108-16.34L108-16.34 107.46-16.34ZM110.7-4.23L110.7-4.23 110.84-3.69Q109.48-2.38 105.48 0.72L105.48 0.72Q105.03 1.62 104.22 1.98L104.22 1.98 102.42-1.98Q103.36-2.43 103.64-2.75L103.64-2.75Q103.91-3.1 103.91-3.69L103.91-3.69 103.91-9.54Q103.64-9.22 103-9.22L103-9.22 100.94-9.22 100.94-3.38Q101.61-3.6 103.05-4.05L103.05-4.05 103.23-3.46Q102.69-2.79 99.54 0.18L99.54 0.18Q99.18 1.4 98.14 1.84L98.14 1.84 96.3-2.11Q97.25-2.61 97.52-2.92 97.78-3.24 97.78-3.82L97.78-3.82 97.78-16.16 100.94-15.66 100.94-10.48 102.06-12.38Q103.19-11.16 103.91-10.17L103.91-10.17 103.91-16.02 107.1-15.52 107.1-10.48 108.22-12.42Q109.62-10.89 110.34-9.76L110.34-9.76Q110.2-9.09 109.26-9.09L109.26-9.09 107.1-9.09 107.1-3.24Q108.45-3.55 110.7-4.23ZM123.8-5L123.8-5 126.31-5 126.31-13.5 125.23-13.5Q124.74-9.9 123.8-5ZM117.5-13.77L117.5-13.77 115.16-13.77Q114.39-12.06 113.4-10.35L113.4-10.35Q115.56-10.13 116.69-9L116.69-9Q117.22-11.38 117.5-13.77ZM130.14-13.5L130.14-5.35 133.11-5.35 133.11-3.73 130.14-3.73 130.14 2.79Q130.14 3.1 129.1 3.51L129.1 3.51Q128.07 3.96 127.08 3.96L127.08 3.96 126.31 3.96 126.31-3.73 120.42-3.73 120.42-5.31Q121.36-10.44 121.77-13.5L121.77-13.5Q121.45-13.41 120.87-13.32L120.87-13.32Q119.83-7.56 117.27-3.15L117.27-3.15Q114.75 1.21 109.8 4L109.8 4 109.39 3.33Q113.63 0.04 115.69-5.67L115.69-5.67Q115.11-5.67 114.61-5.98L114.61-5.98Q114.25-7.47 112.59-9.13L112.59-9.13Q111.24-7.25 109.84-5.89L109.84-5.89 109.17-6.3Q112.23-11.92 113.31-20.02L113.31-20.02 116.64-18.81Q116.01-15.93 115.69-15.03L115.69-15.03 117.13-15.03 119.03-16.96 121.59-14.8 126.31-14.8 126.31-19.26 130.14-18.77 130.14-14.98 132.93-14.98 132.93-13.5 130.14-13.5ZM154.66-28.17L137.61-28.17 137.21-29.43 154.66-29.43 154.66-38.12 160.06-37.48Q160.06-37.48 160.06-29.43L160.06-29.43 178.06-29.43 178.06-28.17 160.06-28.17 160.06-19.57 175.23-19.57 175.23-18.27 140.63-18.27 140.26-19.57 154.66-19.57 154.66-28.17ZM155.66-16.25L155.66-16.25 156.01-16.52Q162.13-14.63 163.57-10.98L163.57-10.98Q164.52-8.64 163.17-7.11L163.17-7.11Q161.91-5.67 160.06-6.57L160.06-6.57Q159.57-6.79 159.12-7.2L159.12-7.2Q158.99-11.56 155.66-16.25ZM142.6-13.18L142.6-13.18 143.24-13.18Q144.36-10.26 144.31-7.69L144.31-7.69Q144.31-5.17 143.55-3.6L143.55-3.6Q142.78-2.07 141.53-1.21L141.53-1.21Q140.35-0.36 138.96-0.54L138.96-0.54Q137.61-0.77 137.12-1.93L137.12-1.93Q136.31-4.23 138.74-5.54L138.74-5.54Q140.31-6.48 141.48-8.59L141.48-8.59Q142.69-10.75 142.6-13.18ZM168.12-8.64L168.62-8.64 168.7-2.7Q169.88-2.29 170.28-1.8L170.28-1.8Q170.69-1.35 170.69-0.58L170.69-0.58Q170.69 1.21 168.39 1.84L168.39 1.84Q166.14 2.52 159.53 2.52L159.53 2.52 153.72 2.52Q149.81 2.52 148.5 1.62L148.5 1.62Q147.24 0.77 147.24-1.98L147.24-1.98 147.24-15.21 152.55-14.67 152.55-3.06Q152.55-2.52 152.91-2.29L152.91-2.29Q153.31-2.11 154.57-2.11L154.57-2.11 160.06-2.11Q162.99-2.11 164.52-2.21L164.52-2.21Q165.38-2.25 165.87-2.92L165.87-2.92Q166.45-3.82 168.12-8.64L168.12-8.64ZM168.53-13.63L168.53-13.63 168.93-13.9Q175.95-11.79 177.93-7.65L177.93-7.65Q179.14-5.08 177.88-3.28L177.88-3.28Q176.72-1.71 174.78-2.43L174.78-2.43Q174.24-2.65 173.66-3.1L173.66-3.1Q172.84-8.1 168.53-13.63Z" transform="translate(-1.1299999952316284, 38.29999923706055)"></path></g> <!----> <!----> <!----> <!----> <!----> <!----> <!----></g></g> <g data-gra="path-slogan" fill-rule="" class="tp-slogan iconsvg-slogansvg" fill="#333" transform="translate(30.075817108154297,48.47999954223633)"><!----> <!----> <g transform="scale(1, 1)"><g transform="scale(1)"><path d="M7.31-3.61L4.69-3.61L4.69-4.59L8.44-4.59L8.44 0L7.69 0L7.41-1.08Q6.42 0.09 4.59 0.14L4.59 0.14Q2.86 0.14 1.92-0.75L1.92-0.75Q0.52-2.06 0.56-4.36L0.56-4.36Q0.89-8.63 4.64-8.81L4.64-8.81Q7.83-8.63 8.30-6L8.30-6L7.17-6Q6.70-7.78 4.59-7.83L4.59-7.83Q1.92-7.64 1.78-4.31L1.78-4.31Q1.78-0.75 4.64-0.75L4.64-0.75Q5.67-0.75 6.42-1.31L6.42-1.31Q7.36-2.06 7.31-3.61L7.31-3.61ZM15.89-3.19L15.89-8.58L17.06-8.58L17.06-3.05Q16.92 0.05 13.55 0.14L13.55 0.14Q10.41 0.05 10.27-2.86L10.27-2.86L10.27-8.58L11.44-8.58L11.44-3.19Q11.48-0.84 13.59-0.80L13.59-0.80Q15.89-0.84 15.89-3.19L15.89-3.19ZM24.52 0L23.67-2.48L20.20-2.48L19.31 0L18.14 0L21.38-8.58L22.69-8.58L25.78 0L24.52 0ZM21.94-7.31L20.58-3.52L23.25-3.52L21.98-7.31L21.94-7.31ZM28.22-8.58L32.53-1.64L32.53-8.58L33.66-8.58L33.66 0L32.34 0L27.98-6.94L27.94-6.94L27.94 0L26.81 0L26.81-8.58L28.22-8.58ZM41.86-3.61L39.23-3.61L39.23-4.59L42.98-4.59L42.98 0L42.23 0L41.95-1.08Q40.97 0.09 39.14 0.14L39.14 0.14Q37.41 0.14 36.47-0.75L36.47-0.75Q35.06-2.06 35.11-4.36L35.11-4.36Q35.44-8.63 39.19-8.81L39.19-8.81Q42.38-8.63 42.84-6L42.84-6L41.72-6Q41.25-7.78 39.14-7.83L39.14-7.83Q36.47-7.64 36.33-4.31L36.33-4.31Q36.33-0.75 39.19-0.75L39.19-0.75Q40.22-0.75 40.97-1.31L40.97-1.31Q41.91-2.06 41.86-3.61L41.86-3.61ZM45.61-1.03L50.91-1.03L50.91 0L44.16 0L44.16-0.94L49.41-7.59L44.53-7.59L44.53-8.58L50.91-8.58L50.91-7.59L45.61-1.03ZM53.20-5.06L57.70-5.06L57.70-8.58L58.88-8.58L58.88 0L57.70 0L57.70-3.98L53.20-3.98L53.20 0L52.03 0L52.03-8.58L53.20-8.58L53.20-5.06ZM67.45-4.27L67.45-4.27Q67.27-7.64 64.45-7.83L64.45-7.83Q61.59-7.69 61.45-4.27L61.45-4.27Q61.59-0.94 64.45-0.80L64.45-0.80Q67.27-0.98 67.45-4.27ZM68.63-4.27L68.63-4.27Q68.34 0 64.45 0.14L64.45 0.14Q60.52 0 60.23-4.27L60.23-4.27Q60.47-8.72 64.45-8.81L64.45-8.81Q68.34-8.67 68.63-4.27ZM75.66-3.19L75.66-8.58L76.83-8.58L76.83-3.05Q76.69 0.05 73.31 0.14L73.31 0.14Q70.17 0.05 70.03-2.86L70.03-2.86L70.03-8.58L71.20-8.58L71.20-3.19Q71.25-0.84 73.36-0.80L73.36-0.80Q75.66-0.84 75.66-3.19L75.66-3.19ZM81.94-8.58L83.11-8.58L83.11-1.03L87.47-1.03L87.47 0L81.94 0L81.94-8.58ZM88.78-8.58L89.95-8.58L89.95 0L88.78 0L88.78-8.58ZM93.33-8.58L97.64-1.64L97.64-8.58L98.77-8.58L98.77 0L97.45 0L93.09-6.94L93.05-6.94L93.05 0L91.92 0L91.92-8.58L93.33-8.58ZM101.39-1.03L106.69-1.03L106.69 0L99.94 0L99.94-0.94L105.19-7.59L100.31-7.59L100.31-8.58L106.69-8.58L106.69-7.59L101.39-1.03ZM108.98-5.06L113.48-5.06L113.48-8.58L114.66-8.58L114.66 0L113.48 0L113.48-3.98L108.98-3.98L108.98 0L107.81 0L107.81-8.58L108.98-8.58L108.98-5.06ZM116.63-8.58L117.80-8.58L117.80 0L116.63 0L116.63-8.58Z" transform="translate(-0.5609879032258065, 8.8125)"></path></g></g></g></g></g><defs v-gra="od"></defs></svg>